
        <svg xmlns="http://www.w3.org/2000/svg" xmlns:xlink="http://www.w3.org/1999/xlink" version="1.1" width="3161.969173608894" height="862.9628295648653" viewBox="0 0 3161.969173608894 862.9628295648653">
			
			<g transform="scale(8.09845868044469) translate(10, 10)">
				<defs id="SvgjsDefs11584"/><g id="SvgjsG11585" featureKey="symbolFeature-0" transform="matrix(0.9617735193185789,0,0,0.9617735193185789,-4.3636863266263255,-4.809829759012944)" fill="#000"><path xmlns="http://www.w3.org/2000/svg" d="M86.229,50.001l0.721-0.723c10.115-10.115,10.116-26.574,0-36.69s-26.575-10.116-36.691,0l-0.722,0.721l-0.721-0.721  C38.7,2.472,22.24,2.472,12.124,12.588C2.008,22.704,2.008,39.163,12.125,49.278l0.721,0.723l-0.721,0.721  C2.008,60.838,2.008,77.296,12.124,87.414c10.117,10.115,26.577,10.115,36.692,0l0.721-0.722l0.722,0.722  c10.116,10.115,26.575,10.115,36.691,0c10.116-10.118,10.115-26.576,0-36.692L86.229,50.001z M53.453,15.783  c8.354-8.354,21.947-8.354,30.3,0c8.354,8.354,8.354,21.948,0.001,30.301L59.431,70.407c-1.862,1.863-2.316,4.073-0.109,6.306  l0.831,0.806c4.66,4.66,12.242,4.66,16.902,0s4.66-12.243,0.001-16.903l-0.722-0.722l1.751-1.75l0.722,0.722  c5.627,5.625,5.627,14.78,0,20.405c-5.625,5.625-14.781,5.625-20.406,0c0,0-0.354-0.298-0.833-0.78  c-0.44-0.447-4.823-4.899,0.112-9.835l24.322-24.323c7.389-7.388,7.389-19.409,0-26.798c-7.388-7.387-19.408-7.387-26.796,0.001  l-0.723,0.721l-1.752-1.751L53.453,15.783z M73.86,74.325c-2.899,2.897-7.615,2.897-10.514,0l-0.721-0.722l10.513-10.513l0.722,0.72  C76.758,66.71,76.758,71.425,73.86,74.325z M15.319,15.783c8.354-8.354,21.948-8.354,30.302,0l24.321,24.321l-1.752,1.754  L43.868,17.535c-7.389-7.388-19.408-7.388-26.796,0c-7.389,7.388-7.389,19.409,0,26.797l0.721,0.722l-1.752,1.752l-0.722-0.721  C6.965,37.731,6.965,24.138,15.319,15.783z M62.626,26.398l0.721-0.722c2.898-2.898,7.614-2.898,10.514,0  c2.897,2.898,2.897,7.613,0,10.514l-0.722,0.721L62.626,26.398z M24.337,58.297l-2.319,2.318c-4.661,4.66-4.66,12.243,0,16.903  c4.659,4.66,12.242,4.66,16.902,0l0.722-0.722c3.561-3.559-0.725-7.104-2.787-9.167l-1.343-1.354l-6.383-6.383l1.752-1.75  l8.49,8.489l0.67,0.672c6.242,6.239,1.837,10.76,1.353,11.244l-0.722,0.722c-5.626,5.628-14.78,5.625-20.407,0  c-5.625-5.625-5.625-14.78,0.001-20.407L44.59,34.54l1.751,1.754L34.23,48.403L24.337,58.297z M25.934,63.091l10.513,10.51  l-0.722,0.723c-2.899,2.897-7.614,2.899-10.512,0c-2.898-2.898-2.898-7.615,0-10.513L25.934,63.091z M49.536,39.488l10.512,10.513  L49.536,60.512L39.023,50.001L49.536,39.488z M38.921,22.483c-4.66-4.662-12.243-4.66-16.902,0c-4.66,4.658-4.661,12.242,0,16.902  l0.721,0.722l-1.752,1.751l-0.722-0.721c-5.626-5.627-5.625-14.781,0-20.408c5.627-5.625,14.781-5.626,20.407,0l24.323,24.323  l-1.752,1.752L38.921,22.483z M36.447,26.399L25.934,36.911l-0.721-0.721c-2.899-2.899-2.899-7.615-0.001-10.514  c2.898-2.898,7.614-2.898,10.513,0.002L36.447,26.399z M83.753,84.218c-8.353,8.354-21.946,8.354-30.3,0l-0.909-0.813  c-0.198-0.199-1.873-1.863-3.107-4.434c-1.151,2.43-2.679,4.096-3.094,4.525l-0.722,0.722c-8.354,8.354-21.948,8.354-30.302,0  c-8.354-8.354-8.354-21.947,0-30.303l24.323-24.321l1.752,1.753L17.072,55.669c-7.389,7.389-7.389,19.409,0,26.797  c7.388,7.389,19.408,7.389,26.796,0l0.761-0.762c1.918-1.991,3.366-5.064,3.473-8.229c0-0.093,0.007-0.186,0.009-0.277  c0.022-2.474-0.788-4.981-2.86-7.055c-1.284-1.284-3.86-3.86-3.86-3.86l-0.371-0.395l-6.942-6.941l1.752-1.753l9.693,9.693  l0.813,0.828c1.438,1.439,2.459,2.871,3.161,4.269c0.705-1.348,1.705-2.73,3.102-4.128l0.134-0.148l24.324-24.322  c4.659-4.66,4.659-12.244-0.001-16.904c-4.659-4.66-12.242-4.66-16.902,0l-0.722,0.723l-1.751-1.752l0.721-0.723  c5.625-5.625,14.781-5.625,20.406,0c5.627,5.627,5.627,14.781,0,20.406L54.482,65.46l-0.767,0.77  c-4.868,4.868-2.956,11.839,0.604,15.397l0.886,0.839c7.388,7.389,19.408,7.389,26.796,0c7.389-7.388,7.389-19.408,0-26.797  l-0.722-0.722l1.752-1.753l0.722,0.723C92.107,62.271,92.107,75.863,83.753,84.218z"/></g><g id="SvgjsG11586" featureKey="nameFeature-0" transform="matrix(1.490656938656597,0,0,1.490656938656597,104.0186861226868,5.304641149765121)" fill="#000"><path d="M22.4 30 l0 10 l-6 0 l0 -10 c0 -2.76 -1.28 -4.64 -4.2 -4.64 c-2.88 0 -4.2 1.92 -4.2 4.64 l0 10 l-6 0 l0 -10 c0 -6.16 4.24 -10.2 10.2 -10.2 c6.2 0 10.2 4.24 10.2 10.2 z M38.708 34.64 c2.92 0 4.6 -1.72 4.6 -4.64 s-1.68 -4.64 -4.6 -4.64 s-4.6 1.72 -4.6 4.64 s1.68 4.64 4.6 4.64 z M38.708 40.2 c-6.16 0 -10.6 -4.08 -10.6 -10.2 c0 -6.32 4.6 -10.2 10.6 -10.2 c6.2 0 10.6 4.08 10.6 10.2 c0 6.28 -4.64 10.2 -10.6 10.2 z M87.336 29.2 l0 10.8 l-6 0 l0 -10.8 c0 -2.28 -1.08 -3.84 -3.48 -3.84 c-2.36 0 -3.52 1.6 -3.52 3.84 l0 10.8 l-6 0 l0 -10.8 c0 -2.28 -1.16 -3.84 -3.56 -3.84 c-2.36 0 -3.44 1.6 -3.44 3.84 l0 10.8 l-6 0 l0 -10.8 c0 -5.8 3.96 -9.4 9.52 -9.4 c2.84 0 5.04 1.32 6.48 3.76 c1.44 -2.44 3.64 -3.76 6.48 -3.76 c5.76 0 9.52 3.8 9.52 9.4 z M94.004 20 l6 0 l0 20 l-6 0 l0 -20 z M97.004 18.12 c-2.04 0 -3.48 -1.44 -3.48 -3.48 c0 -2.08 1.44 -3.44 3.48 -3.44 c2.08 0 3.44 1.36 3.44 3.44 c0 2.12 -1.32 3.48 -3.44 3.48 z M127.792 30 l0 10 l-6 0 l0 -10 c0 -2.76 -1.28 -4.64 -4.2 -4.64 c-2.88 0 -4.2 1.92 -4.2 4.64 l0 10 l-6 0 l0 -10 c0 -6.16 4.24 -10.2 10.2 -10.2 c6.2 0 10.2 4.24 10.2 10.2 z M148.70000000000002 30 c0 -3 -1.48 -4.64 -4.52 -4.64 c-0.84 0 -1.56 0.12 -2.16 0.36 c-1.12 0.52 -1.88 1.28 -2.24 2.48 c-0.2 0.56 -0.28 1.16 -0.28 1.8 s0.08 1.24 0.28 1.8 c0.32 1.16 1.16 2 2.24 2.44 c0.6 0.28 1.32 0.4 2.16 0.4 c3.04 0 4.52 -1.64 4.52 -4.64 z M148.70000000000002 22 l0 -10 l6 0 l0 18 c0 6.36 -4.52 10.2 -10.56 10.2 c-6.16 0 -10.64 -4 -10.64 -10.12 c0 -5.64 4.16 -10.28 9.84 -10.28 c2.12 0 3.96 0.6 5.36 2.2 z M160.96800000000005 39.36 l0 -5.6 c2.64 0.8 5.96 0.96 8.68 0.96 c1.08 0 1.92 -0.04 2.52 -0.16 c0.56 -0.08 0.84 -0.28 0.84 -0.56 c0 -0.12 -0.04 -0.2 -0.12 -0.32 c-0.4 -0.4 -1.28 -0.6 -1.8 -0.72 s-1.2 -0.28 -2.04 -0.44 c-0.68 -0.12 -1.48 -0.28 -2.4 -0.48 c-3.12 -0.68 -5.52 -2.44 -5.52 -5.8 c0 -4.96 4.84 -6.44 8.92 -6.44 c2.56 0 5.12 0.36 7.64 0.88 l0 5.64 c-2.52 -0.76 -5.36 -0.96 -8 -0.96 c-1.04 0 -1.76 0.04 -2.2 0.16 s-0.68 0.32 -0.68 0.56 c0 0.36 0.36 0.6 1.04 0.72 c0.68 0.16 1.64 0.36 2.8 0.56 c1.04 0.2 2.04 0.4 3 0.64 c2.96 0.76 5.08 2.36 5.08 5.56 c0 5.36 -5.4 6.68 -9.72 6.68 c-2.72 0 -5.4 -0.36 -8.04 -0.88 z"/></g>
			</g>
		</svg>
	